<svg xmlns="http://www.w3.org/2000/svg" xmlns:xlink="http://www.w3.org/1999/xlink" width="224" zoomAndPan="magnify" viewBox="0 0 168 61.499998" height="82" preserveAspectRatio="xMidYMid meet" version="1.0"><defs><g/><clipPath id="3bb17f3aaf"><path d="M 0.675781 0 L 167.320312 0 L 167.320312 61.003906 L 0.675781 61.003906 Z M 0.675781 0 " clip-rule="nonzero"/></clipPath><clipPath id="c17c7178c8"><path d="M 8.785156 4.539062 L 57.367188 4.539062 L 57.367188 53.117188 L 8.785156 53.117188 Z M 8.785156 4.539062 " clip-rule="nonzero"/></clipPath><clipPath id="0c779506ae"><path d="M 33.078125 4.539062 C 19.660156 4.539062 8.785156 15.414062 8.785156 28.828125 C 8.785156 42.242188 19.660156 53.117188 33.078125 53.117188 C 46.492188 53.117188 57.367188 42.242188 57.367188 28.828125 C 57.367188 15.414062 46.492188 4.539062 33.078125 4.539062 Z M 33.078125 4.539062 " clip-rule="nonzero"/></clipPath><clipPath id="a58d953c76"><path d="M 13.289062 6.101562 L 58.902344 6.101562 L 58.902344 51.710938 L 13.289062 51.710938 Z M 13.289062 6.101562 " clip-rule="nonzero"/></clipPath><clipPath id="e32b2d051c"><path d="M 36.09375 6.101562 C 23.5 6.101562 13.289062 16.3125 13.289062 28.90625 C 13.289062 41.5 23.5 51.710938 36.09375 51.710938 C 48.691406 51.710938 58.902344 41.5 58.902344 28.90625 C 58.902344 16.3125 48.691406 6.101562 36.09375 6.101562 Z M 36.09375 6.101562 " clip-rule="nonzero"/></clipPath><clipPath id="ce3c9b0c90"><path d="M 34.5625 6.023438 L 80.171875 6.023438 L 80.171875 51.632812 L 34.5625 51.632812 Z M 34.5625 6.023438 " clip-rule="nonzero"/></clipPath><clipPath id="92e079e379"><path d="M 57.367188 6.023438 C 44.773438 6.023438 34.5625 16.234375 34.5625 28.828125 C 34.5625 41.421875 44.773438 51.632812 57.367188 51.632812 C 69.960938 51.632812 80.171875 41.421875 80.171875 28.828125 C 80.171875 16.234375 69.960938 6.023438 57.367188 6.023438 Z M 57.367188 6.023438 " clip-rule="nonzero"/></clipPath></defs><g clip-path="url(#3bb17f3aaf)"><path fill="#ffffff" d="M 0.675781 0 L 167.324219 0 L 167.324219 61.003906 L 0.675781 61.003906 Z M 0.675781 0 " fill-opacity="1" fill-rule="nonzero"/><path fill="#ffffff" d="M 0.675781 0 L 167.324219 0 L 167.324219 61.003906 L 0.675781 61.003906 Z M 0.675781 0 " fill-opacity="1" fill-rule="nonzero"/></g><g clip-path="url(#c17c7178c8)"><g clip-path="url(#0c779506ae)"><path fill="#ff914d" d="M 8.785156 4.539062 L 57.367188 4.539062 L 57.367188 53.117188 L 8.785156 53.117188 Z M 8.785156 4.539062 " fill-opacity="1" fill-rule="nonzero"/></g></g><g clip-path="url(#a58d953c76)"><g clip-path="url(#e32b2d051c)"><path fill="#ffbd59" d="M 13.289062 6.101562 L 58.902344 6.101562 L 58.902344 51.710938 L 13.289062 51.710938 Z M 13.289062 6.101562 " fill-opacity="1" fill-rule="nonzero"/></g></g><g clip-path="url(#ce3c9b0c90)"><g clip-path="url(#92e079e379)"><path fill="#ffbd59" d="M 34.5625 6.023438 L 80.171875 6.023438 L 80.171875 51.632812 L 34.5625 51.632812 Z M 34.5625 6.023438 " fill-opacity="1" fill-rule="nonzero"/></g></g><g fill="#ffffff" fill-opacity="1"><g transform="translate(18.164356, 37.664964)"><g><path d="M 2.1875 0 L 2.1875 -17.34375 L 5.859375 -17.34375 L 5.859375 -3.03125 L 12.890625 -3.03125 L 12.890625 0 Z M 2.1875 0 "/></g></g></g><g fill="#ffffff" fill-opacity="1"><g transform="translate(31.882858, 37.664964)"><g><path d="M 11.296875 0 L 10.8125 -1.703125 L 10.625 -1.703125 C 10.226562 -1.078125 9.675781 -0.597656 8.96875 -0.265625 C 8.257812 0.0664062 7.445312 0.234375 6.53125 0.234375 C 4.976562 0.234375 3.804688 -0.179688 3.015625 -1.015625 C 2.222656 -1.847656 1.828125 -3.046875 1.828125 -4.609375 L 1.828125 -13.265625 L 5.453125 -13.265625 L 5.453125 -5.515625 C 5.453125 -4.554688 5.617188 -3.835938 5.953125 -3.359375 C 6.296875 -2.878906 6.835938 -2.640625 7.578125 -2.640625 C 8.585938 -2.640625 9.316406 -2.976562 9.765625 -3.65625 C 10.222656 -4.332031 10.453125 -5.453125 10.453125 -7.015625 L 10.453125 -13.265625 L 14.078125 -13.265625 L 14.078125 0 Z M 11.296875 0 "/></g></g></g><g fill="#ffffff" fill-opacity="1"><g transform="translate(47.84232, 37.664964)"><g><path d="M 14.140625 0 L 10.515625 0 L 10.515625 -7.75 C 10.515625 -8.707031 10.34375 -9.425781 10 -9.90625 C 9.664062 -10.382812 9.128906 -10.625 8.390625 -10.625 C 7.378906 -10.625 6.644531 -10.285156 6.1875 -9.609375 C 5.738281 -8.929688 5.515625 -7.804688 5.515625 -6.234375 L 5.515625 0 L 1.890625 0 L 1.890625 -13.265625 L 4.65625 -13.265625 L 5.15625 -11.5625 L 5.34375 -11.5625 C 5.75 -12.207031 6.304688 -12.691406 7.015625 -13.015625 C 7.722656 -13.347656 8.53125 -13.515625 9.4375 -13.515625 C 10.976562 -13.515625 12.144531 -13.097656 12.9375 -12.265625 C 13.738281 -11.429688 14.140625 -10.226562 14.140625 -8.65625 Z M 14.140625 0 "/></g></g></g><g fill="#ffffff" fill-opacity="1"><g transform="translate(63.801781, 37.664964)"><g><path d="M 10.328125 0 L 9.625 -1.796875 L 9.53125 -1.796875 C 8.914062 -1.035156 8.285156 -0.503906 7.640625 -0.203125 C 6.992188 0.0859375 6.15625 0.234375 5.125 0.234375 C 3.851562 0.234375 2.847656 -0.128906 2.109375 -0.859375 C 1.378906 -1.585938 1.015625 -2.625 1.015625 -3.96875 C 1.015625 -5.375 1.503906 -6.410156 2.484375 -7.078125 C 3.472656 -7.742188 4.960938 -8.113281 6.953125 -8.1875 L 9.25 -8.25 L 9.25 -8.84375 C 9.25 -10.1875 8.5625 -10.859375 7.1875 -10.859375 C 6.125 -10.859375 4.878906 -10.535156 3.453125 -9.890625 L 2.25 -12.34375 C 3.78125 -13.132812 5.472656 -13.53125 7.328125 -13.53125 C 9.109375 -13.53125 10.472656 -13.144531 11.421875 -12.375 C 12.367188 -11.601562 12.84375 -10.425781 12.84375 -8.84375 L 12.84375 0 Z M 9.25 -6.140625 L 7.859375 -6.09375 C 6.804688 -6.0625 6.019531 -5.867188 5.5 -5.515625 C 4.988281 -5.171875 4.734375 -4.644531 4.734375 -3.9375 C 4.734375 -2.914062 5.316406 -2.40625 6.484375 -2.40625 C 7.328125 -2.40625 8 -2.644531 8.5 -3.125 C 9 -3.613281 9.25 -4.253906 9.25 -5.046875 Z M 9.25 -6.140625 "/></g></g></g><g fill="#000000" fill-opacity="1"><g transform="translate(78.470929, 37.664964)"><g><path d="M 16.578125 -8.84375 C 16.578125 -5.988281 15.765625 -3.800781 14.140625 -2.28125 C 12.515625 -0.757812 10.164062 0 7.09375 0 L 2.1875 0 L 2.1875 -17.34375 L 7.625 -17.34375 C 10.457031 -17.34375 12.65625 -16.59375 14.21875 -15.09375 C 15.789062 -13.601562 16.578125 -11.519531 16.578125 -8.84375 Z M 12.75 -8.75 C 12.75 -12.46875 11.101562 -14.328125 7.8125 -14.328125 L 5.859375 -14.328125 L 5.859375 -3.03125 L 7.4375 -3.03125 C 10.976562 -3.03125 12.75 -4.9375 12.75 -8.75 Z M 12.75 -8.75 "/></g></g></g><g fill="#000000" fill-opacity="1"><g transform="translate(96.446073, 37.664964)"><g><path d="M 9.296875 -13.515625 C 9.785156 -13.515625 10.191406 -13.476562 10.515625 -13.40625 L 10.25 -10.015625 C 9.957031 -10.085938 9.601562 -10.125 9.1875 -10.125 C 8.03125 -10.125 7.128906 -9.828125 6.484375 -9.234375 C 5.835938 -8.648438 5.515625 -7.820312 5.515625 -6.75 L 5.515625 0 L 1.890625 0 L 1.890625 -13.265625 L 4.640625 -13.265625 L 5.171875 -11.03125 L 5.34375 -11.03125 C 5.757812 -11.78125 6.316406 -12.378906 7.015625 -12.828125 C 7.710938 -13.285156 8.472656 -13.515625 9.296875 -13.515625 Z M 9.296875 -13.515625 "/></g></g></g><g fill="#000000" fill-opacity="1"><g transform="translate(107.473041, 37.664964)"><g><path d="M 1.75 -16.6875 C 1.75 -17.863281 2.40625 -18.453125 3.71875 -18.453125 C 5.03125 -18.453125 5.6875 -17.863281 5.6875 -16.6875 C 5.6875 -16.125 5.519531 -15.6875 5.1875 -15.375 C 4.863281 -15.0625 4.375 -14.90625 3.71875 -14.90625 C 2.40625 -14.90625 1.75 -15.5 1.75 -16.6875 Z M 5.515625 0 L 1.890625 0 L 1.890625 -13.265625 L 5.515625 -13.265625 Z M 5.515625 0 "/></g></g></g><g fill="#000000" fill-opacity="1"><g transform="translate(114.883644, 37.664964)"><g><path d="M 5.046875 0 L 0 -13.265625 L 3.78125 -13.265625 L 6.34375 -5.703125 C 6.632812 -4.742188 6.8125 -3.835938 6.875 -2.984375 L 6.953125 -2.984375 C 6.992188 -3.742188 7.171875 -4.648438 7.484375 -5.703125 L 10.03125 -13.265625 L 13.828125 -13.265625 L 8.765625 0 Z M 5.046875 0 "/></g></g></g><g fill="#000000" fill-opacity="1"><g transform="translate(128.697002, 37.664964)"><g><path d="M 7.390625 -10.9375 C 6.617188 -10.9375 6.015625 -10.691406 5.578125 -10.203125 C 5.148438 -9.722656 4.90625 -9.035156 4.84375 -8.140625 L 9.921875 -8.140625 C 9.898438 -9.035156 9.664062 -9.722656 9.21875 -10.203125 C 8.769531 -10.691406 8.160156 -10.9375 7.390625 -10.9375 Z M 7.90625 0.234375 C 5.769531 0.234375 4.097656 -0.351562 2.890625 -1.53125 C 1.691406 -2.707031 1.09375 -4.375 1.09375 -6.53125 C 1.09375 -8.757812 1.644531 -10.476562 2.75 -11.6875 C 3.863281 -12.90625 5.40625 -13.515625 7.375 -13.515625 C 9.238281 -13.515625 10.691406 -12.976562 11.734375 -11.90625 C 12.785156 -10.84375 13.3125 -9.367188 13.3125 -7.484375 L 13.3125 -5.734375 L 4.75 -5.734375 C 4.789062 -4.703125 5.097656 -3.894531 5.671875 -3.3125 C 6.242188 -2.738281 7.039062 -2.453125 8.0625 -2.453125 C 8.863281 -2.453125 9.617188 -2.535156 10.328125 -2.703125 C 11.046875 -2.867188 11.789062 -3.132812 12.5625 -3.5 L 12.5625 -0.703125 C 11.925781 -0.378906 11.25 -0.144531 10.53125 0 C 9.8125 0.15625 8.9375 0.234375 7.90625 0.234375 Z M 7.90625 0.234375 "/></g></g></g></svg>